REM DIRINDEX 1\2,1\3,1\4
REM DIRNAME folder01,folder02,folder03,folder04
TITLE ""
FILE "103 103_TOEFL_3900.mp3" MP3
  TRACK 01 AUDIO
    TITLE "2:cjc151_4488"
    INDEX 01 00:00:00
  TRACK 02 AUDIO
    TITLE "0:"
    INDEX 01 00:01:21
  TRACK 03 AUDIO
    TITLE "3:cjc151_4489"
    INDEX 01 00:03:04
  TRACK 04 AUDIO
    TITLE "0:"
    INDEX 01 00:07:19
  TRACK 05 AUDIO
    TITLE "2:cjc151_4490"
    INDEX 01 00:08:73
  TRACK 06 AUDIO
    TITLE "0:"
    INDEX 01 00:09:71
  TRACK 07 AUDIO
    TITLE "3:cjc151_4491"
    INDEX 01 00:11:56
  TRACK 08 AUDIO
    TITLE "0:"
    INDEX 01 00:14:47
  TRACK 09 AUDIO
    TITLE "2:cjc151_4492"
    INDEX 01 00:16:26
  TRACK 10 AUDIO
    TITLE "0:"
    INDEX 01 00:17:43
  TRACK 11 AUDIO
    TITLE "3:cjc151_4493"
    INDEX 01 00:19:20
  TRACK 12 AUDIO
    TITLE "0:"
    INDEX 01 00:22:58
  TRACK 13 AUDIO
    TITLE "2:cjc151_4494"
    INDEX 01 00:24:37
  TRACK 14 AUDIO
    TITLE "0:"
    INDEX 01 00:25:58
  TRACK 15 AUDIO
    TITLE "3:cjc151_4495"
    INDEX 01 00:27:38
  TRACK 16 AUDIO
    TITLE "0:"
    INDEX 01 00:31:65
  TRACK 17 AUDIO
    TITLE "2:cjc151_4496"
    INDEX 01 00:33:48
  TRACK 18 AUDIO
    TITLE "0:"
    INDEX 01 00:34:63
  TRACK 19 AUDIO
    TITLE "3:cjc151_4497"
    INDEX 01 00:36:42
  TRACK 20 AUDIO
    TITLE "0:"
    INDEX 01 00:40:62
  TRACK 21 AUDIO
    TITLE "2:cjc151_4498"
    INDEX 01 00:42:41
  TRACK 22 AUDIO
    TITLE "0:"
    INDEX 01 00:43:40
  TRACK 23 AUDIO
    TITLE "3:cjc151_4499"
    INDEX 01 00:45:22
  TRACK 24 AUDIO
    TITLE "0:"
    INDEX 01 00:49:02
  TRACK 25 AUDIO
    TITLE "2:cjc151_4500"
    INDEX 01 00:50:56
  TRACK 26 AUDIO
    TITLE "0:"
    INDEX 01 00:51:60
  TRACK 27 AUDIO
    TITLE "3:cjc151_4501"
    INDEX 01 00:53:39
  TRACK 28 AUDIO
    TITLE "0:"
    INDEX 01 00:56:71
  TRACK 29 AUDIO
    TITLE "2:cjc151_4502"
    INDEX 01 00:58:52
  TRACK 30 AUDIO
    TITLE "0:"
    INDEX 01 00:59:47
  TRACK 31 AUDIO
    TITLE "3:cjc151_4503"
    INDEX 01 01:01:27
  TRACK 32 AUDIO
    TITLE "0:"
    INDEX 01 01:05:09
  TRACK 33 AUDIO
    TITLE "2:cjc151_4504"
    INDEX 01 01:06:63
  TRACK 34 AUDIO
    TITLE "0:"
    INDEX 01 01:07:63
  TRACK 35 AUDIO
    TITLE "3:cjc151_4505"
    INDEX 01 01:09:42
  TRACK 36 AUDIO
    TITLE "0:"
    INDEX 01 01:12:73
  TRACK 37 AUDIO
    TITLE "2:cjc151_4506"
    INDEX 01 01:14:51
  TRACK 38 AUDIO
    TITLE "0:"
    INDEX 01 01:15:56
  TRACK 39 AUDIO
    TITLE "3:cjc151_4507"
    INDEX 01 01:17:35
  TRACK 40 AUDIO
    TITLE "0:"
    INDEX 01 01:21:10
  TRACK 41 AUDIO
    TITLE "2:cjc151_4508"
    INDEX 01 01:22:64
  TRACK 42 AUDIO
    TITLE "0:"
    INDEX 01 01:23:50
  TRACK 43 AUDIO
    TITLE "3:cjc151_4509"
    INDEX 01 01:25:29
  TRACK 44 AUDIO
    TITLE "0:"
    INDEX 01 01:28:35
  TRACK 45 AUDIO
    TITLE "2:cjc151_4510"
    INDEX 01 01:30:15
  TRACK 46 AUDIO
    TITLE "0:"
    INDEX 01 01:31:47
  TRACK 47 AUDIO
    TITLE "3:cjc151_4511"
    INDEX 01 01:33:27
  TRACK 48 AUDIO
    TITLE "0:"
    INDEX 01 01:37:56
  TRACK 49 AUDIO
    TITLE "2:cjc151_4512"
    INDEX 01 01:39:33
  TRACK 50 AUDIO
    TITLE "0:"
    INDEX 01 01:40:38
  TRACK 51 AUDIO
    TITLE "3:cjc151_4513"
    INDEX 01 01:42:16
  TRACK 52 AUDIO
    TITLE "0:"
    INDEX 01 01:46:08
  TRACK 53 AUDIO
    TITLE "2:cjc151_4514"
    INDEX 01 01:47:62
  TRACK 54 AUDIO
    TITLE "0:"
    INDEX 01 01:49:16
  TRACK 55 AUDIO
    TITLE "3:cjc151_4515"
    INDEX 01 01:50:68
  TRACK 56 AUDIO
    TITLE "0:"
    INDEX 01 01:54:19
  TRACK 57 AUDIO
    TITLE "2:cjc151_4516"
    INDEX 01 01:55:73
  TRACK 58 AUDIO
    TITLE "0:"
    INDEX 01 01:57:17
  TRACK 59 AUDIO
    TITLE "3:cjc151_4517"
    INDEX 01 01:58:72
  TRACK 60 AUDIO
    TITLE "0:"
    INDEX 01 02:01:50
  TRACK 61 AUDIO
    TITLE "2:cjc151_4518"
    INDEX 01 02:03:30
  TRACK 62 AUDIO
    TITLE "0:"
    INDEX 01 02:04:55
  TRACK 63 AUDIO
    TITLE "3:cjc151_4519"
    INDEX 01 02:06:34
  TRACK 64 AUDIO
    TITLE "0:"
    INDEX 01 02:10:30
  TRACK 65 AUDIO
    TITLE "2:cjc151_4520"
    INDEX 01 02:12:09
  TRACK 66 AUDIO
    TITLE "0:"
    INDEX 01 02:13:24
  TRACK 67 AUDIO
    TITLE "3:cjc151_4521"
    INDEX 01 02:15:05
  TRACK 68 AUDIO
    TITLE "0:"
    INDEX 01 02:19:35
  TRACK 69 AUDIO
    TITLE "2:cjc151_4522"
    INDEX 01 02:21:14
  TRACK 70 AUDIO
    TITLE "0:"
    INDEX 01 02:22:07
  TRACK 71 AUDIO
    TITLE "3:cjc151_4523"
    INDEX 01 02:23:62
  TRACK 72 AUDIO
    TITLE "0:"
    INDEX 01 02:27:54
  TRACK 73 AUDIO
    TITLE "2:cjc151_4524"
    INDEX 01 02:29:33
  TRACK 74 AUDIO
    TITLE "0:"
    INDEX 01 02:30:48
  TRACK 75 AUDIO
    TITLE "3:cjc151_4525"
    INDEX 01 02:32:25
  TRACK 76 AUDIO
    TITLE "0:"
    INDEX 01 02:36:25
  TRACK 77 AUDIO
    TITLE "2:cjc151_4526"
    INDEX 01 02:38:08
  TRACK 78 AUDIO
    TITLE "0:"
    INDEX 01 02:38:73
  TRACK 79 AUDIO
    TITLE "3:cjc151_4527"
    INDEX 01 02:40:50
  TRACK 80 AUDIO
    TITLE "0:"
    INDEX 01 02:44:15
  TRACK 81 AUDIO
    TITLE "2:cjc151_4528"
    INDEX 01 02:45:69
  TRACK 82 AUDIO
    TITLE "0:"
    INDEX 01 02:47:11
  TRACK 83 AUDIO
    TITLE "3:cjc151_4529"
    INDEX 01 02:48:66
  TRACK 84 AUDIO
    TITLE "0:"
    INDEX 01 02:51:46
  TRACK 85 AUDIO
    TITLE "2:cjc151_4530"
    INDEX 01 02:53:26
  TRACK 86 AUDIO
    TITLE "0:"
    INDEX 01 02:54:39
  TRACK 87 AUDIO
    TITLE "3:cjc151_4531"
    INDEX 01 02:56:18
  TRACK 88 AUDIO
    TITLE "0:"
    INDEX 01 02:59:44
